<?xml version="1.0" standalone="no"?>
<!DOCTYPE svg PUBLIC "-//W3C//DTD SVG 20010904//EN"
 "http://www.w3.org/TR/2001/REC-SVG-20010904/DTD/svg10.dtd">
<svg version="1.0" xmlns="http://www.w3.org/2000/svg"
 width="1267.000000pt" height="613.000000pt" viewBox="0 0 1267.000000 613.000000"
 preserveAspectRatio="xMidYMid meet">

<g transform="translate(0.000000,613.000000) scale(0.100000,-0.100000)"
fill="#000000" stroke="none">
<path d="M3630 5525 l0 -85 65 0 c37 0 65 4 65 10 0 6 -25 10 -55 10 -54 0
-55 0 -55 30 0 29 1 30 50 30 28 0 50 5 50 10 0 6 -22 10 -50 10 -47 0 -50 2
-50 25 0 24 3 25 55 25 30 0 55 5 55 10 0 6 -28 10 -65 10 l-65 0 0 -85z"/>
<path d="M4910 5525 l0 -85 65 0 c37 0 65 4 65 10 0 6 -25 10 -55 10 -54 0
-55 0 -55 30 0 29 1 30 50 30 28 0 50 5 50 10 0 6 -22 10 -50 10 -47 0 -50 2
-50 25 0 24 3 25 55 25 30 0 55 5 55 10 0 6 -28 10 -65 10 l-65 0 0 -85z"/>
<path d="M3806 5554 c-20 -19 -21 -87 -2 -103 25 -21 67 -18 83 7 14 20 14 22
-1 22 -9 0 -16 -5 -16 -11 0 -6 -12 -9 -27 -7 -25 3 -28 7 -28 38 0 34 1 35
38 34 39 -1 45 4 25 24 -17 17 -54 15 -72 -4z"/>
<path d="M3926 5563 c-10 -11 -7 -123 4 -123 6 0 10 24 11 53 1 56 2 55 19
-11 14 -53 37 -54 56 -2 l12 35 1 -37 c2 -63 21 -43 21 21 0 87 -25 93 -50 11
l-13 -45 -15 47 c-14 44 -32 64 -46 51z"/>
<path d="M5122 5541 c-19 -32 -32 -31 -32 1 0 10 -4 18 -10 18 -6 0 -10 -27
-10 -60 0 -33 4 -60 10 -60 6 0 10 11 10 25 0 33 13 32 38 -2 11 -16 23 -25
27 -21 4 4 -2 20 -14 36 l-21 30 20 25 c12 15 16 28 10 32 -5 3 -18 -8 -28
-24z"/>
<path d="M3783 5360 c-57 -35 -80 -113 -48 -170 9 -18 10 -29 3 -38 -14 -17
-2 -28 15 -13 10 8 22 8 46 0 l31 -11 0 -409 0 -409 26 0 c38 0 94 -59 94 -99
0 -59 -44 -111 -95 -111 -27 0 -16 -16 21 -29 38 -14 74 -61 74 -99 0 -52 -43
-102 -89 -102 -33 0 -25 -15 19 -34 71 -31 91 -109 44 -165 -18 -22 -35 -31
-55 -31 -19 0 -29 -5 -29 -15 0 -9 9 -15 21 -15 12 0 36 -15 55 -34 60 -60 38
-138 -47 -173 l-39 -15 0 -723 0 -723 -21 -5 c-11 -3 -23 -15 -26 -26 -5 -21
-9 -21 -374 -21 l-369 0 0 115 0 115 -70 0 -70 0 0 -245 0 -245 70 0 70 0 0
120 0 120 369 0 c360 0 369 0 374 -20 12 -45 102 -45 114 0 5 19 14 20 348 20
371 0 355 2 355 -53 0 -82 101 -218 196 -263 82 -39 226 -43 307 -9 16 7 17
-5 17 -169 l0 -176 -85 0 c-50 0 -85 -4 -85 -10 0 -6 65 -10 175 -10 110 0
175 4 175 10 0 6 -33 10 -80 10 l-80 0 0 179 0 180 53 50 c86 82 124 179 114
296 -7 88 -51 179 -117 238 l-50 45 0 340 c0 335 0 340 21 345 11 3 23 15 26
26 5 21 7 21 549 21 l544 0 0 -120 0 -120 70 0 70 0 0 245 0 245 -70 0 -70 0
0 -115 0 -115 -544 0 c-542 0 -544 0 -549 21 -3 11 -15 23 -26 26 -20 5 -21
11 -21 198 l0 193 36 12 c21 7 43 24 55 44 35 57 18 150 -33 177 l-21 11 26
16 c32 19 47 52 47 100 0 38 -30 99 -54 108 -9 3 -3 15 20 38 30 30 34 40 34
86 0 46 -4 56 -34 86 -32 32 -33 35 -15 44 27 15 49 63 49 109 0 31 -7 49 -31
76 -17 19 -42 38 -55 41 l-24 6 0 198 c0 192 1 198 21 203 11 3 23 15 26 26 5
21 9 21 434 21 l429 0 0 -115 0 -115 65 0 65 0 0 240 0 240 -65 0 -65 0 0
-115 0 -115 -429 0 c-425 0 -429 0 -434 21 -3 11 -15 23 -26 26 -20 5 -21 12
-21 142 l0 137 35 13 c49 17 75 54 75 108 0 24 -5 53 -11 64 -8 15 -7 24 2 35
16 19 4 30 -15 15 -12 -10 -20 -10 -38 3 -50 35 -141 7 -173 -53 -19 -38 -19
-78 0 -115 12 -22 12 -32 4 -43 -15 -17 -4 -29 14 -15 10 8 23 8 50 0 l37 -11
0 -138 c0 -128 -1 -137 -20 -142 -27 -7 -42 -50 -30 -83 6 -14 19 -28 30 -31
19 -5 20 -14 20 -214 0 -206 0 -209 21 -209 34 0 89 -62 89 -102 0 -47 -32
-95 -69 -103 -39 -8 -39 -19 -1 -35 74 -31 94 -117 41 -171 -16 -16 -39 -29
-50 -29 -32 0 -25 -18 13 -34 96 -40 84 -180 -16 -200 -30 -6 -39 -26 -13 -26
29 0 71 -28 83 -55 28 -61 3 -127 -58 -151 l-40 -16 0 -198 c0 -189 -1 -198
-20 -203 -45 -12 -45 -102 0 -114 19 -5 20 -14 20 -344 l0 -339 -22 14 c-68
44 -225 35 -319 -18 -88 -50 -166 -160 -179 -251 l-5 -40 -346 -3 c-344 -2
-347 -2 -352 19 -3 11 -15 23 -26 26 l-21 5 0 718 0 718 30 7 c16 3 43 22 60
41 44 50 43 110 -3 160 l-33 36 33 33 c27 27 33 41 33 74 0 49 -22 96 -51 112
l-21 11 21 14 c66 47 66 161 0 208 l-21 14 24 16 c32 21 48 57 48 108 0 34 -6
47 -39 79 -21 22 -48 39 -60 39 l-21 0 0 400 c0 355 2 400 15 400 29 0 75 30
90 60 18 35 19 80 4 114 -9 20 -9 29 1 41 16 20 5 32 -14 16 -12 -10 -20 -10
-38 3 -31 22 -86 20 -125 -4z m113 -15 c18 -13 16 -17 -54 -87 -70 -70 -74
-72 -87 -54 -57 76 65 198 141 141z m1280 0 c18 -13 16 -17 -54 -87 -76 -77
-83 -78 -98 -20 -20 74 91 153 152 107z m-1226 -94 c0 -14 -9 -40 -20 -58 -22
-37 -76 -53 -117 -34 l-26 12 69 70 c62 62 70 68 81 52 7 -9 13 -28 13 -42z
m1274 43 c34 -89 -55 -176 -136 -133 -19 10 -16 15 48 80 38 38 71 69 75 69 4
0 10 -7 13 -16z m-135 -3111 l23 -15 -38 -22 c-22 -12 -83 -45 -136 -74 l-98
-52 0 60 c0 33 -4 60 -10 60 -6 0 -10 -48 -10 -125 l0 -125 -100 0 -100 0 0
30 c0 77 82 197 168 246 92 51 236 60 301 17z m103 -70 c130 -138 130 -336 1
-475 -52 -54 -54 -54 -133 13 -25 21 -47 34 -51 28 -3 -6 -35 7 -77 31 -39 22
-76 40 -81 40 -6 0 -10 49 -10 123 l0 123 142 76 c78 43 149 77 157 78 9 0 32
-17 52 -37z m-372 -373 c0 -80 4 -130 10 -130 6 0 10 27 10 60 0 33 3 60 8 59
4 0 36 -17 72 -38 50 -29 64 -42 63 -59 -2 -18 5 -22 55 -32 88 -17 91 -20 52
-37 -23 -11 -67 -16 -130 -17 -84 -1 -101 2 -152 26 -98 48 -172 150 -192 266
l-5 32 104 0 105 0 0 -130z"/>
<path d="M6094 5239 c-27 -30 -26 -102 3 -130 30 -31 90 -30 115 0 26 33 11
47 -18 16 -53 -57 -127 9 -92 82 10 21 21 29 47 31 23 2 37 -2 43 -12 11 -20
28 -21 28 -1 0 38 -95 48 -126 14z"/>
<path d="M6266 5244 c-9 -8 -16 -20 -16 -25 0 -15 18 -10 28 7 11 20 56 15 60
-6 1 -9 -18 -37 -43 -62 -25 -25 -45 -51 -45 -57 0 -7 22 -11 55 -11 30 0 55
5 55 10 0 6 -18 10 -40 10 l-41 0 41 38 c22 22 40 48 40 60 0 27 -26 52 -55
52 -13 0 -31 -7 -39 -16z"/>
<path d="M6280 4790 l0 -240 70 0 70 0 0 115 0 115 400 0 400 0 0 -100 0 -100
-85 0 c-50 0 -85 -4 -85 -10 0 -6 67 -10 180 -10 113 0 180 4 180 10 0 6 -35
10 -85 10 l-84 0 -3 108 -3 107 -407 3 -408 2 0 115 0 115 -70 0 -70 0 0 -240z"/>
<path d="M7120 4500 c0 -6 43 -10 110 -10 67 0 110 4 110 10 0 6 -43 10 -110
10 -67 0 -110 -4 -110 -10z"/>
<path d="M7190 4430 c0 -5 18 -10 40 -10 22 0 40 5 40 10 0 6 -18 10 -40 10
-22 0 -40 -4 -40 -10z"/>
<path d="M4100 3845 l0 -85 55 0 c30 0 55 5 55 10 0 6 -20 10 -45 10 l-45 0 0
75 c0 43 -4 75 -10 75 -6 0 -10 -35 -10 -85z"/>
<path d="M4272 3907 c-27 -29 -28 -41 -2 -27 19 10 20 8 20 -55 0 -37 4 -65
10 -65 6 0 10 35 10 85 0 47 -4 85 -8 85 -5 0 -18 -10 -30 -23z"/>
<path d="M5380 3845 l0 -85 55 0 c30 0 55 5 55 10 0 6 -20 10 -45 10 l-45 0 0
75 c0 43 -4 75 -10 75 -6 0 -10 -35 -10 -85z"/>
<path d="M5522 3918 c-14 -14 -16 -38 -3 -38 5 0 11 7 15 15 3 8 16 15 30 15
25 0 39 -20 30 -44 -3 -7 -23 -28 -45 -45 -56 -45 -52 -61 16 -61 30 0 55 5
55 10 0 6 -18 10 -40 10 l-41 0 41 38 c60 58 52 112 -15 112 -17 0 -36 -5 -43
-12z"/>
<path d="M6321 3374 c-12 -15 -21 -41 -21 -59 0 -18 9 -44 21 -59 28 -35 100
-38 124 -4 20 30 2 35 -25 8 -51 -51 -121 18 -88 87 10 21 21 29 47 31 23 2
37 -2 43 -12 11 -20 28 -21 28 -1 0 20 -32 35 -74 35 -25 0 -40 -7 -55 -26z"/>
<path d="M6500 3385 c-16 -19 -5 -34 12 -17 7 7 20 12 30 12 26 0 24 -40 -2
-47 -27 -7 -25 -21 3 -25 16 -2 22 -10 22 -27 0 -34 -29 -50 -53 -28 -25 22
-35 22 -23 -2 13 -23 39 -31 68 -20 33 12 44 41 29 71 -8 16 -10 31 -5 39 12
19 11 25 -7 43 -20 20 -58 21 -74 1z"/>
<path d="M8990 3255 l0 -85 55 0 c30 0 55 5 55 10 0 6 -20 10 -45 10 l-45 0 0
75 c0 43 -4 75 -10 75 -6 0 -10 -35 -10 -85z"/>
<path d="M9130 3321 c-7 -13 -7 -22 0 -26 6 -3 13 1 16 9 3 9 17 16 30 16 31
0 34 -39 4 -47 -27 -7 -25 -21 3 -25 33 -5 31 -52 -2 -56 -15 -2 -30 3 -37 13
-9 11 -14 13 -19 5 -9 -14 11 -35 42 -44 15 -5 30 1 50 18 27 24 28 26 12 55
-12 20 -14 32 -6 40 7 7 7 18 -1 36 -15 32 -75 36 -92 6z"/>
<path d="M6510 2925 l0 -245 70 0 70 0 0 120 0 120 719 0 c709 0 719 0 724
-20 3 -11 17 -24 31 -30 l26 -10 0 -545 0 -545 -120 0 -120 0 0 -70 0 -70 245
0 245 0 0 70 0 70 -115 0 -115 0 0 548 c0 536 0 547 20 560 11 7 20 19 20 27
0 13 30 15 208 15 l208 0 18 40 c19 43 58 70 102 70 32 0 94 -59 94 -89 0 -12
6 -21 15 -21 9 0 15 9 15 21 0 32 62 89 96 89 44 0 90 -33 104 -74 14 -45 23
-45 38 -2 17 45 43 67 89 73 47 6 86 -21 104 -72 7 -19 16 -35 19 -35 3 0 12
16 19 36 15 40 62 74 104 74 35 0 97 -57 97 -89 0 -21 3 -21 235 -21 l235 0 0
-575 0 -575 -115 0 -115 0 0 -70 0 -70 240 0 240 0 0 70 0 70 -115 0 -115 0 0
575 0 575 805 0 805 0 0 -400 0 -400 -85 0 -85 0 0 -415 0 -415 85 0 85 0 0
-335 0 -335 -85 0 c-50 0 -85 -4 -85 -10 0 -6 67 -10 180 -10 113 0 180 4 180
10 0 6 -35 10 -85 10 l-85 0 0 335 0 335 85 0 85 0 0 415 0 415 -85 0 -85 0 0
410 0 410 -1049 0 -1049 0 -6 24 c-10 39 -71 86 -112 86 -41 0 -87 -22 -107
-50 -14 -20 -15 -20 -51 16 -35 35 -39 36 -88 32 -42 -5 -57 -11 -81 -38 -29
-32 -29 -32 -43 -11 -21 30 -67 51 -110 51 -29 0 -44 -8 -73 -37 l-36 -38 -36
38 c-30 30 -44 37 -75 37 -51 0 -96 -29 -118 -74 l-17 -36 -198 0 c-190 0
-199 1 -204 20 -7 27 -50 42 -83 30 -14 -6 -28 -19 -31 -30 -5 -20 -15 -20
-724 -20 l-719 0 0 115 0 115 -70 0 -70 0 0 -245z m5300 -1220 l0 -395 -160 0
-160 0 0 395 0 395 160 0 160 0 0 -395z"/>
<path d="M460 1935 l0 -535 290 0 290 0 0 -345 0 -345 -85 0 c-50 0 -85 -4
-85 -10 0 -6 67 -10 180 -10 113 0 180 4 180 10 0 6 -35 10 -85 10 l-85 0 0
345 0 345 290 0 290 0 0 235 0 235 515 0 515 0 0 -120 0 -120 70 0 70 0 0 245
0 245 -70 0 -70 0 0 -115 0 -115 -515 0 -515 0 0 290 0 290 -590 0 -590 0 0
-535z m1160 0 l0 -515 -570 0 -570 0 0 515 0 515 570 0 570 0 0 -515z"/>
<path d="M961 2252 c-67 -34 -89 -126 -51 -209 31 -70 129 -95 210 -53 39 20
40 21 40 75 l0 55 -60 0 c-47 0 -60 -3 -60 -15 0 -11 11 -15 40 -15 38 0 40
-2 40 -30 0 -63 -125 -81 -170 -23 -24 31 -27 110 -5 152 29 57 128 66 161 16
16 -25 44 -34 44 -14 0 63 -113 100 -189 61z"/>
<path d="M874 1751 c-18 -11 -39 -30 -48 -42 -18 -26 -22 -79 -6 -79 6 0 10
12 10 26 0 31 46 80 85 90 56 14 125 -49 125 -115 0 -67 64 -116 142 -109 58
6 94 35 104 86 8 41 -12 44 -21 2 -10 -46 -51 -73 -103 -67 -57 6 -88 37 -101
98 -13 61 -35 95 -72 115 -38 19 -78 18 -115 -5z"/>
<path d="M2714 2329 c-13 -14 -19 -36 -19 -66 0 -36 5 -49 27 -68 33 -28 85
-25 111 7 24 29 5 36 -23 8 -22 -22 -62 -21 -85 1 -14 14 -12 84 4 103 17 20
77 21 85 1 7 -19 26 -20 26 0 0 38 -95 48 -126 14z"/>
<path d="M2912 2327 c-27 -29 -28 -41 -2 -27 19 10 20 8 20 -55 0 -37 4 -65
10 -65 6 0 10 35 10 85 0 47 -4 85 -8 85 -5 0 -18 -10 -30 -23z"/>
<path d="M5256 2308 c17 -109 20 -123 32 -123 7 0 29 36 48 79 38 89 37 86 26
86 -5 0 -21 -29 -37 -65 -15 -36 -31 -62 -36 -60 -4 3 -11 32 -15 65 -4 33
-11 60 -15 60 -5 0 -6 -19 -3 -42z"/>
<path d="M5380 2340 c0 -5 11 -10 25 -10 27 0 27 1 4 -105 -8 -38 -5 -55 6
-43 3 3 12 36 18 74 11 55 17 70 33 72 48 9 34 22 -24 22 -35 0 -62 -4 -62
-10z"/>
<path d="M5538 2325 c-33 -29 -36 -39 -7 -30 17 6 20 4 16 -12 -13 -43 -18
-103 -10 -103 9 0 38 158 31 165 -2 2 -15 -7 -30 -20z"/>
<path d="M8240 2033 c-29 -37 -22 -99 14 -129 30 -27 83 -23 108 7 27 32 10
44 -18 14 -20 -21 -30 -26 -52 -20 -15 3 -31 11 -37 16 -14 14 -12 84 4 103
17 20 77 21 85 1 7 -19 26 -20 26 0 0 20 -32 35 -74 35 -26 0 -40 -7 -56 -27z"/>
<path d="M8437 2010 c-56 -75 -56 -80 -8 -80 34 0 41 -3 41 -20 0 -11 5 -20
10 -20 6 0 10 9 10 20 0 11 7 20 15 20 8 0 15 5 15 10 0 6 -7 10 -15 10 -12 0
-15 13 -15 55 0 30 -4 55 -8 55 -4 0 -25 -23 -45 -50z m33 -30 c0 -26 -4 -30
-26 -30 l-26 0 24 29 c13 17 24 30 26 30 1 1 2 -12 2 -29z"/>
<path d="M10110 2033 c-26 -33 -23 -95 7 -125 28 -28 91 -27 114 1 27 33 12
47 -17 16 -20 -21 -30 -26 -52 -20 -15 3 -31 11 -37 16 -14 14 -12 84 4 103
17 21 80 21 87 1 8 -19 24 -19 24 0 0 20 -32 35 -74 35 -26 0 -40 -7 -56 -27z"/>
<path d="M10290 2053 c0 -5 -4 -25 -9 -45 l-9 -37 42 2 c37 2 41 0 44 -24 2
-14 -4 -31 -13 -39 -13 -11 -20 -10 -45 9 -31 22 -40 17 -17 -11 32 -41 100
-18 100 35 0 36 -20 57 -53 57 -23 0 -27 4 -23 20 4 15 14 20 40 20 20 0 32 4
28 10 -7 12 -85 14 -85 3z"/>
<path d="M11900 1855 c0 -50 4 -85 10 -85 6 0 10 16 10 35 0 32 2 35 29 35 23
0 34 -8 51 -35 12 -19 29 -35 37 -35 12 0 9 9 -12 35 l-26 36 23 18 c19 16 21
23 13 47 -10 27 -14 29 -73 32 l-62 3 0 -86z m114 49 c13 -35 -14 -46 -86 -35
-5 0 -8 12 -8 26 0 23 4 25 44 25 31 0 46 -5 50 -16z"/>
<path d="M12080 1830 c0 -33 4 -60 10 -60 6 0 10 11 10 25 0 21 5 25 30 25 25
0 30 -4 30 -25 0 -14 5 -25 10 -25 6 0 10 27 10 60 0 33 -4 60 -10 60 -5 0
-10 -11 -10 -25 0 -21 -5 -25 -30 -25 -25 0 -30 4 -30 25 0 14 -4 25 -10 25
-6 0 -10 -27 -10 -60z"/>
<path d="M7910 1470 l0 -70 120 0 120 0 0 -275 0 -275 -90 0 c-53 0 -90 -4
-90 -10 0 -6 67 -10 180 -10 113 0 180 4 180 10 0 6 -33 10 -80 10 l-80 0 0
275 0 275 115 0 115 0 0 70 0 70 -245 0 -245 0 0 -70z"/>
<path d="M9780 1470 l0 -70 115 0 115 0 0 -275 0 -275 -85 0 c-50 0 -85 -4
-85 -10 0 -6 67 -10 180 -10 113 0 180 4 180 10 0 6 -35 10 -85 10 l-85 0 0
275 0 275 115 0 115 0 0 70 0 70 -240 0 -240 0 0 -70z"/>
<path d="M5020 1120 c0 -6 42 -10 105 -10 63 0 105 4 105 10 0 6 -42 10 -105
10 -63 0 -105 -4 -105 -10z"/>
<path d="M5080 1050 c0 -5 18 -10 40 -10 22 0 40 5 40 10 0 6 -18 10 -40 10
-22 0 -40 -4 -40 -10z"/>
<path d="M8040 770 c0 -6 43 -10 110 -10 67 0 110 4 110 10 0 6 -43 10 -110
10 -67 0 -110 -4 -110 -10z"/>
<path d="M9910 770 c0 -6 43 -10 110 -10 67 0 110 4 110 10 0 6 -43 10 -110
10 -67 0 -110 -4 -110 -10z"/>
<path d="M8110 700 c0 -5 18 -10 40 -10 22 0 40 5 40 10 0 6 -18 10 -40 10
-22 0 -40 -4 -40 -10z"/>
<path d="M9980 700 c0 -5 18 -10 40 -10 22 0 40 5 40 10 0 6 -18 10 -40 10
-22 0 -40 -4 -40 -10z"/>
<path d="M940 630 c0 -6 43 -10 110 -10 67 0 110 4 110 10 0 6 -43 10 -110 10
-67 0 -110 -4 -110 -10z"/>
<path d="M1010 560 c0 -5 18 -10 40 -10 22 0 40 5 40 10 0 6 -18 10 -40 10
-22 0 -40 -4 -40 -10z"/>
<path d="M11540 540 c0 -6 43 -10 110 -10 67 0 110 4 110 10 0 6 -43 10 -110
10 -67 0 -110 -4 -110 -10z"/>
<path d="M11610 470 c0 -5 18 -10 40 -10 22 0 40 5 40 10 0 6 -18 10 -40 10
-22 0 -40 -4 -40 -10z"/>
</g>
</svg>
